:SAMPLES-PER-SECOND 30
:FULLY-SPECIFIED
:DEGREES
156
root  -4.47206 40.967 0.289993 -0.0180664 -77.5331 4.63571
RightUpLeg  2.89207 -1.72873 -1.21025
RightLeg  -6.85693 -30.7683 4.09016
RightFoot  0.0608709 -0.234522 2.3551
RightToes  -3.13588e-008 1.75238e-005 3.56266e-009
Spine  -1.0457 1.99344 -4.59356
Spine1  -5.4196 1.57451 5.12301
HEad  -0.780161 -4.06305 6.51548
LeftShoulder1  0.441641 1.60543 -16.4961
LeftArm  -63.6943 -57.8167 -27.5485
LeftForeArm  161.21 -62.3161 -160.314
LeftHand  -0.959784 -5.86737 10.1898
RightShoulder  2.08133 3.62866 23.0148
RightArm  -21.4597 -5.18079 41.1608
RightForeArm  20.0455 46.5267 10.3873
RightHand  -0.426441 6.95169 -4.3513
LeftUpLeg  -0.603262 0.226634 2.71702
LeftLeg  -5.08787 4.17156 -0.660366
LeftFoot  2.07673 0.397756 -3.49749
LeftToes  4.76812e-008 1.47286e-008 1.3089e-009
157
root  -4.45344 40.9664 0.31096 -0.369965 -77.0717 4.78952
RightUpLeg  3.13715 -1.82046 -1.30035
RightLeg  -6.86711 -31.1334 4.11901
RightFoot  0.0619732 -0.242629 2.43414
RightToes  -3.13588e-008 1.75238e-005 3.56266e-009
Spine  -1.77176 1.72977 -4.4462
Spine1  -4.2936 1.28879 5.11377
HEad  -0.640746 -3.93251 6.48966
LeftShoulder1  0.506809 1.36624 -17.0045
LeftArm  -61.1424 -54.9405 -29.5748
LeftForeArm  156.388 -68.4292 -153.581
LeftHand  -0.855992 -5.00334 9.85098
RightShoulder  2.04612 3.4958 23.0697
RightArm  -21.4602 -4.91126 41.3876
RightForeArm  19.8403 46.5517 10.4125
RightHand  -0.369766 6.48617 -3.9498
LeftUpLeg  -0.602813 0.204847 2.60983
LeftLeg  -4.83473 3.77917 -0.627967
LeftFoot  2.0555 0.391756 -3.42474
LeftToes  4.76812e-008 1.47286e-008 1.3089e-009
158
root  -4.43572 40.9612 0.31999 -0.817749 -76.7799 5.0607
RightUpLeg  3.10759 -1.92719 -1.39037
RightLeg  -6.30274 -31.3345 3.81324
RightFoot  -0.170654 -0.253716 2.58028
RightToes  -3.13588e-008 1.75238e-005 3.56266e-009
Spine  -1.96866 1.74045 -4.40222
Spine1  -4.0144 1.29429 5.14785
HEad  -0.41878 -3.51915 6.35668
LeftShoulder1  0.472134 1.51757 -17.0571
LeftArm  -57.1648 -52.5272 -33.0271
LeftForeArm  138.372 -76.2193 -134.15
LeftHand  -0.929948 -4.77521 10.8953
RightShoulder  2.05825 3.52544 23.1171
RightArm  -21.684 -5.37152 41.2899
RightForeArm  19.9048 46.7161 10.4724
RightHand  -0.41233 6.7718 -4.27685
LeftUpLeg  -0.390383 0.144174 2.51795
LeftLeg  -4.97484 3.51195 -0.630973
LeftFoot  2.08517 0.389506 -3.40897
LeftToes  4.76812e-008 1.47286e-008 1.3089e-009
159
root  -4.38996 40.9642 0.323946 -0.341156 -76.2507 4.51633
RightUpLeg  3.15114 -1.94718 -1.3189
RightLeg  -6.31796 -31.844 3.92808
RightFoot  -0.160931 -0.260194 2.66357
RightToes  -3.13588e-008 1.75238e-005 3.56266e-009
Spine  -2.34525 1.8199 -4.29817
Spine1  -3.71136 1.33039 5.39527
HEad  -0.310429 -3.44994 6.24434
LeftShoulder1  0.507611 1.37967 -17.2004
LeftArm  -53.5742 -51.2497 -36.9532
LeftForeArm  86.5806 -80.0303 -79.9511
LeftHand  -0.902231 -4.46724 10.8484
RightShoulder  1.8524 2.89655 22.773
RightArm  -21.8008 -5.30971 41.7051
RightForeArm  20.0054 46.5156 10.386
RightHand  -0.415832 6.6937 -4.33448
LeftUpLeg  -0.615381 0.144899 2.562
LeftLeg  -4.70192 3.01606 -0.529061
LeftFoot  2.09533 0.386402 -3.3785
LeftToes  4.76812e-008 1.47286e-008 1.3089e-009
160
root  -4.37297 40.9722 0.347351 -0.664917 -76.1421 4.7001
RightUpLeg  3.33482 -1.97583 -1.40012
RightLeg  -6.40399 -31.9227 3.93362
RightFoot  -0.0627352 -0.263372 2.70064
RightToes  -3.13588e-008 1.75238e-005 3.56266e-009
Spine  -2.68 2.00916 -3.94155
Spine1  -3.57416 1.52838 5.21695
HEad  0.303077 -3.67284 6.04214
LeftShoulder1  0.494607 1.41959 -17.0197
LeftArm  -51.2698 -49.6889 -40.5514
LeftForeArm  44.3771 -72.9928 -34.0849
LeftHand  -0.709369 -3.44282 9.57447
RightShoulder  1.8113 2.82133 22.4391
RightArm  -21.9362 -5.65978 41.9955
RightForeArm  20.0779 46.1291 10.2301
RightHand  -0.395275 6.57972 -4.16157
LeftUpLeg  -0.410833 0.0980028 2.44898
LeftLeg  -4.87906 3.07581 -0.535546
LeftFoot  2.27212 0.383907 -3.35614
LeftToes  4.76812e-008 1.47286e-008 1.3089e-009
161
root  -4.35268 40.9743 0.360292 -0.810028 -76.0502 4.72009
RightUpLeg  3.55903 -1.96044 -1.41145
RightLeg  -6.65593 -32.0369 4.02522
RightFoot  0.0184847 -0.260222 2.64081
RightToes  -3.13588e-008 1.75238e-005 3.56266e-009
Spine  -3.16812 2.2158 -3.34452
Spine1  -3.10857 1.75615 4.79217
HEad  0.287712 -3.52325 5.47996
LeftShoulder1  0.491291 1.45065 -17.2305
LeftArm  -50.6566 -49.4208 -42.4159
LeftForeArm  30.6592 -60.3409 -16.8822
LeftHand  -0.783781 -3.68386 10.2632
RightShoulder  1.67256 2.42396 22.0059
RightArm  -22.0271 -5.45512 42.7174
RightForeArm  20.0516 45.3459 9.93604
RightHand  -0.304328 6.45321 -3.31757
LeftUpLeg  -0.336998 0.157299 2.45028
LeftLeg  -4.83301 2.83018 -0.577156
LeftFoot  2.23063 0.387036 -3.41998
LeftToes  4.76812e-008 1.47286e-008 1.3089e-009
162
root  -4.33232 40.9751 0.369196 -1.16351 -76.0173 4.83249
RightUpLeg  3.7351 -2.02039 -1.46647
RightLeg  -6.46127 -31.9914 3.8926
RightFoot  -0.0530589 -0.269687 2.78114
RightToes  -3.13588e-008 1.75238e-005 3.56266e-009
Spine  -3.31717 2.09566 -2.85403
Spine1  -2.9066 1.67547 4.3121
HEad  0.722377 -2.77279 4.93669
LeftShoulder1  0.460624 1.56465 -17.0463
LeftArm  -52.4061 -49.6454 -43.8744
LeftForeArm  26.5197 -47.3069 -10.1167
LeftHand  -0.600931 -2.48626 9.06942
RightShoulder  1.72635 2.5659 22.2301
RightArm  -21.6546 -4.9208 42.8594
RightForeArm  20.5588 44.3235 9.52226
RightHand  -0.372331 7.05764 -3.82252
LeftUpLeg  -0.0947636 0.166613 2.40221
LeftLeg  -4.8362 2.80912 -0.591047
LeftFoot  2.26594 0.371705 -3.19513
LeftToes  4.76812e-008 1.47286e-008 1.3089e-009
